<svg width="500" height="500" viewBox="0 0 500 500" fill="none" xmlns="http://www.w3.org/2000/svg">
<rect width="500" height="500" fill="white"/>
<path d="M165.816 168.816C165.816 146.274 184.09 128 206.633 128C229.175 128 247.449 146.274 247.449 168.816V209.633H206.633C184.091 209.633 165.816 191.359 165.816 168.816Z" fill="#FFCD2E"/>
<path d="M125 275.959C125 242.146 152.411 214.734 186.224 214.734H247.449V275.959C247.449 309.772 220.038 337.183 186.225 337.183C152.411 337.183 125 309.772 125 275.959Z" fill="#A259FE"/>
<path d="M252.551 224.939C252.551 191.126 279.962 163.715 313.775 163.715C347.589 163.715 375 191.126 375 224.939C375 258.753 347.589 286.164 313.775 286.164H252.551V224.939Z" fill="#FF7162"/>
<path d="M252.551 291.266H293.367C315.909 291.266 334.183 309.54 334.183 332.082C334.183 354.624 315.909 372.898 293.367 372.898C270.825 372.898 252.551 354.624 252.551 332.082V291.266Z" fill="#0DCF82"/>
</svg>
